<svg width="24" height="24" viewBox="0 0 24 24" fill="none" xmlns="http://www.w3.org/2000/svg">
<path fill-rule="evenodd" clip-rule="evenodd" d="M15.85 5C15.85 4.58579 15.5142 4.25 15.1 4.25C14.6858 4.25 14.35 4.58579 14.35 5V5.64999H10.25V5C10.25 4.58579 9.91424 4.25 9.50002 4.25C9.08581 4.25 8.75002 4.58579 8.75002 5V5.64999H8C6.48122 5.64999 5.25 6.88121 5.25 8.39999V10.6V17C5.25 18.5188 6.48122 19.75 8 19.75H16.6C18.1188 19.75 19.35 18.5188 19.35 17V10.6012C19.35 10.6008 19.35 10.6004 19.35 10.6C19.35 10.5996 19.35 10.5992 19.35 10.5988V8.39999C19.35 6.88121 18.1188 5.64999 16.6 5.64999H15.85V5ZM17.85 9.85V8.39999C17.85 7.70964 17.2904 7.14999 16.6 7.14999H15.85V7.8C15.85 8.21421 15.5142 8.55 15.1 8.55C14.6858 8.55 14.35 8.21421 14.35 7.8V7.14999H10.25V7.8C10.25 8.21421 9.91424 8.55 9.50002 8.55C9.08581 8.55 8.75002 8.21421 8.75002 7.8V7.14999H8C7.30964 7.14999 6.75 7.70964 6.75 8.39999V9.85H17.85ZM6.75 11.35V17C6.75 17.6904 7.30964 18.25 8 18.25H16.6C17.2904 18.25 17.85 17.6904 17.85 17V11.35H6.75Z" fill="#353535"/>
</svg>
