<svg width="123" height="168" viewBox="0 0 123 168" fill="none" xmlns="http://www.w3.org/2000/svg">
<path fill-rule="evenodd" clip-rule="evenodd" d="M117.905 58.5466L18.2349 57.9932L32.13 162.214C32.13 162.214 42.7775 167.449 67.2824 166.97C91.7873 166.491 103.542 162.214 103.542 162.214L117.905 58.5466Z" fill="#FBCA12"/>
<path fill-rule="evenodd" clip-rule="evenodd" d="M106.685 58.4643H94.9222L82.1799 166.148C87.3265 165.639 91.5237 165.011 94.7639 164.383L106.685 58.4643ZM72.1654 58.2699H60.9227V166.97C62.8448 167 64.8631 167.03 67.2976 166.97C69.7321 166.91 70.8995 166.88 72.5723 166.798L72.1654 58.2699ZM40.9691 58.1128H28.4604L41.2705 164.959C44.9285 165.722 48.6303 166.261 52.355 166.574L40.9691 58.1128Z" fill="white"/>
<g filter="url(#filter0_dd)">
<path fill-rule="evenodd" clip-rule="evenodd" d="M24.6474 43.7401C25.1022 43.731 25.556 43.7839 25.9963 43.8972C25.799 43.3273 25.7046 42.7273 25.7175 42.1249C25.7719 40.619 26.413 39.1928 27.5058 38.1465C28.5985 37.1002 30.0577 36.5156 31.5762 36.5156C33.0946 36.5156 34.5538 37.1002 35.6466 38.1465C36.7394 39.1928 37.3805 40.619 37.4349 42.1249C37.4454 43.16 37.1719 44.1785 36.6437 45.0712C37.5698 45.3806 38.4034 45.9145 39.069 46.6245C39.7345 47.3345 40.2109 48.1982 40.455 49.1372C40.6991 50.0762 40.7031 51.0608 40.4666 52.0017C40.2302 52.9426 39.7608 53.8101 39.1011 54.5254C38.4413 55.2407 37.612 55.7813 36.6885 56.098C35.7649 56.4148 34.7763 56.4977 33.8122 56.3393C32.8482 56.1809 31.9392 55.7862 31.1678 55.191C30.3964 54.5957 29.787 53.8188 29.3947 52.9306C28.859 53.6839 28.1472 54.2971 27.3205 54.7178C26.4937 55.1385 25.5765 55.354 24.6474 55.346C23.0946 55.346 21.6054 54.7338 20.5074 53.6442C19.4093 52.5545 18.7925 51.0766 18.7925 49.5356C18.7925 47.9946 19.4093 46.5167 20.5074 45.427C21.6054 44.3373 23.0946 43.7252 24.6474 43.7252V43.7401Z" fill="white"/>
</g>
<g filter="url(#filter1_dd)">
<path fill-rule="evenodd" clip-rule="evenodd" d="M44.2847 37.3988C45.2198 37.394 46.1353 37.6651 46.9148 38.1777C47.6943 38.6903 48.3027 39.4213 48.6627 40.2778C49.215 39.7423 49.8914 39.3497 50.6325 39.1346C51.3736 38.9195 52.1567 38.8886 52.9127 39.0445C53.6687 39.2004 54.3744 39.5384 54.9678 40.0287C55.5612 40.519 56.024 41.1466 56.3155 41.8562C56.607 42.5658 56.7182 43.3356 56.6393 44.0978C56.5604 44.8601 56.2939 45.5914 55.8632 46.2274C55.4325 46.8634 54.8509 47.3846 54.1695 47.745C53.4881 48.1054 52.7278 48.294 51.9557 48.2942C51.7426 48.3128 51.5283 48.3128 51.3152 48.2942V48.4513C51.3152 49.6908 50.819 50.8796 49.9358 51.7561C49.0525 52.6326 47.8546 53.125 46.6056 53.125C45.3565 53.125 44.1586 52.6326 43.2754 51.7561C42.3922 50.8796 41.896 49.6908 41.896 48.4513C41.9 47.7247 42.0782 47.0095 42.4159 46.3649C41.4205 45.935 40.605 45.1776 40.1069 44.2204C39.6088 43.2632 39.4587 42.1647 39.6818 41.1104C39.9049 40.0561 40.4876 39.1104 41.3316 38.4329C42.1756 37.7554 43.2293 37.3875 44.3148 37.3913L44.2847 37.3988Z" fill="white"/>
</g>
<g filter="url(#filter2_dd)">
<path fill-rule="evenodd" clip-rule="evenodd" d="M62.2261 34.7441C62.8923 34.7412 63.5524 34.8691 64.1686 35.1205C64.7847 35.3719 65.3446 35.7418 65.816 36.2089C66.2874 36.676 66.661 37.2311 66.9153 37.8422C67.1695 38.4533 67.2994 39.1082 67.2974 39.7693C67.3029 40.3322 67.2086 40.8916 67.0186 41.422C67.2922 41.3724 67.5694 41.3449 67.8475 41.3397C68.6691 41.344 69.4774 41.5464 70.2028 41.9294C70.9282 42.3124 71.549 42.8646 72.0117 43.5384C72.4744 44.2123 72.7651 44.9877 72.859 45.7978C72.9528 46.6079 72.8468 47.4284 72.5502 48.1889C72.2537 48.9494 71.7753 49.6269 71.1564 50.1632C70.5374 50.6996 69.7965 51.0786 68.9972 51.2678C68.1979 51.4569 67.3643 51.4505 66.5681 51.2491C65.7719 51.0476 65.0369 50.6572 64.4264 50.1114C64.0079 50.9669 63.356 51.6888 62.5448 52.195C61.7336 52.7013 60.7957 52.9717 59.8374 52.9755C58.6083 52.9847 57.4178 52.55 56.4879 51.7524C55.558 50.9547 54.9521 49.8487 54.7833 48.6405C54.6146 47.4323 54.8943 46.2044 55.5705 45.1858C56.2467 44.1672 57.2732 43.4275 58.4584 43.1045C57.6214 42.1922 57.1567 41.0032 57.1548 39.7693C57.1568 38.4359 57.692 37.1577 58.6428 36.2155C59.5937 35.2733 60.8824 34.7441 62.2261 34.7441Z" fill="white"/>
</g>
<g filter="url(#filter3_dd)">
<path fill-rule="evenodd" clip-rule="evenodd" d="M74.6443 37.5334C75.809 36.8686 77.1917 36.689 78.4897 37.0337C79.7876 37.3785 80.895 38.2197 81.5693 39.373C81.8363 39.8709 82.0364 40.4014 82.1646 40.9508C82.3734 40.7849 82.598 40.6397 82.8352 40.5171C83.9945 39.9355 85.3346 39.8183 86.5785 40.1896C87.8224 40.5609 88.875 41.3925 89.5185 42.5122C90.162 43.632 90.3473 44.9544 90.0361 46.2059C89.7248 47.4574 88.9408 48.5424 87.8462 49.2365C86.7363 49.8399 85.4467 50.0333 84.2066 49.7824C84.2704 50.6185 84.1218 51.4572 83.7742 52.2215C83.4266 52.9858 82.8913 53.6514 82.2173 54.1571C81.5433 54.6629 80.7522 54.9926 79.9164 55.1162C79.0807 55.2398 78.227 55.1532 77.4337 54.8645C76.6405 54.5757 75.9329 54.0939 75.3759 53.4634C74.8189 52.8328 74.4303 52.0736 74.2457 51.2553C74.0611 50.437 74.0864 49.5858 74.3193 48.7797C74.5522 47.9737 74.9852 47.2385 75.5787 46.6416C74.3861 46.28 73.3797 45.4766 72.768 44.3982C72.4375 43.8283 72.2235 43.1992 72.1382 42.5471C72.0528 41.895 72.0979 41.2326 72.2708 40.5978C72.4436 39.963 72.7409 39.3683 73.1456 38.8476C73.5503 38.3269 74.0544 37.8905 74.6292 37.5633L74.6443 37.5334Z" fill="white"/>
</g>
<g filter="url(#filter4_dd)">
<path fill-rule="evenodd" clip-rule="evenodd" d="M91.8251 40.046C92.3628 39.9518 92.914 39.9646 93.4467 40.0836C93.9795 40.2026 94.483 40.4255 94.9282 40.7393C95.3734 41.0531 95.7513 41.4515 96.04 41.9114C96.3287 42.3714 96.5225 42.8837 96.61 43.4186C96.6928 43.861 96.6928 44.3147 96.61 44.7571C96.8135 44.7197 97.0471 44.6375 97.243 44.6001C98.3106 44.4543 99.3936 44.7254 100.264 45.3563C101.134 45.9872 101.723 46.9286 101.908 47.9823C102.093 49.036 101.858 50.1196 101.253 51.005C100.649 51.8904 99.7217 52.5083 98.6672 52.7287C97.6532 52.9235 96.6028 52.7139 95.7434 52.1454C95.5301 52.9055 95.1039 53.5899 94.5144 54.1194C93.9249 54.6488 93.1962 55.0015 92.4128 55.1366C91.4264 55.3011 90.4133 55.1067 89.5598 54.5891C88.7063 54.0715 88.0697 53.2655 87.7672 52.3194C87.4647 51.3732 87.5165 50.3505 87.9132 49.4393C88.3098 48.528 89.0246 47.7895 89.9262 47.3595C89.1364 46.7094 88.6028 45.8038 88.4191 44.802C88.3243 44.2678 88.3374 43.7203 88.4578 43.1912C88.5782 42.6621 88.8034 42.162 89.1204 41.7202C89.4374 41.2783 89.8397 40.9033 90.304 40.6172C90.7684 40.3311 91.2854 40.1394 91.8251 40.0535V40.046Z" fill="white"/>
</g>
<g filter="url(#filter5_dd)">
<path fill-rule="evenodd" clip-rule="evenodd" d="M107.257 35.5293C107.923 35.5263 108.584 35.6542 109.2 35.9056C109.816 36.157 110.376 36.527 110.847 36.9941C111.319 37.4612 111.692 38.0163 111.946 38.6274C112.201 39.2385 112.331 39.8934 112.329 40.5545C112.319 41.1161 112.225 41.6732 112.05 42.2072C112.298 42.1579 112.55 42.1303 112.803 42.1249C114.113 42.1751 115.353 42.7268 116.262 43.6645C117.171 44.6021 117.679 45.8527 117.679 47.1539C117.679 48.455 117.171 49.7056 116.262 50.6433C115.353 51.5809 114.113 52.1327 112.803 52.1828C111.557 52.1559 110.362 51.6863 109.435 50.8592C108.943 51.8888 108.113 52.7222 107.081 53.2228C106.049 53.7234 104.877 53.8617 103.756 53.615C102.635 53.3683 101.631 52.7513 100.909 51.8649C100.187 50.9784 99.7899 49.8751 99.7822 48.7355C99.7818 47.633 100.145 46.5607 100.815 45.6818C101.486 44.8029 102.428 44.1657 103.497 43.8673C102.642 42.9728 102.165 41.7874 102.163 40.5545C102.161 39.8941 102.291 39.2397 102.545 38.6291C102.799 38.0185 103.171 37.4638 103.642 36.9968C104.113 36.5297 104.672 36.1597 105.287 35.9078C105.902 35.656 106.562 35.5273 107.227 35.5293H107.257Z" fill="white"/>
</g>
<g filter="url(#filter6_dd)">
<path fill-rule="evenodd" clip-rule="evenodd" d="M102.11 23.3476C102.74 23.5636 103.32 23.9006 103.818 24.3394C104.316 24.7781 104.721 25.31 105.012 25.9046C105.302 26.4992 105.472 27.1447 105.51 27.8044C105.549 28.464 105.456 29.1248 105.238 29.7488C105.058 30.283 104.776 30.778 104.409 31.207C104.666 31.2629 104.918 31.3405 105.162 31.4388C105.793 31.6534 106.374 31.9904 106.871 32.4302C107.369 32.87 107.773 33.4038 108.061 34.0003C108.349 34.5969 108.513 35.2443 108.546 35.9049C108.579 36.5654 108.479 37.2258 108.252 37.8475C107.8 39.098 106.869 40.1209 105.661 40.6937C104.453 41.2664 103.066 41.3427 101.801 40.906C100.618 40.484 99.6312 39.6459 99.0285 38.5504C98.4349 39.1536 97.6979 39.5989 96.8855 39.8453C96.073 40.0918 95.2111 40.1313 94.3791 39.9604C93.5472 39.7895 92.772 39.4137 92.1248 38.8674C91.4777 38.3212 90.9794 37.6221 90.6759 36.8347C90.3724 36.0472 90.2735 35.1966 90.3881 34.3612C90.5028 33.5258 90.8275 32.7324 91.3322 32.0542C91.8369 31.376 92.5054 30.8347 93.2762 30.4802C94.0471 30.1257 94.8954 29.9693 95.7431 30.0255C95.2721 28.8739 95.2293 27.5936 95.6225 26.4136C96.0795 25.1666 97.0109 24.147 98.2169 23.5738C99.4228 23.0005 100.807 22.9194 102.073 23.3476H102.11Z" fill="white"/>
</g>
<g filter="url(#filter7_dd)">
<path fill-rule="evenodd" clip-rule="evenodd" d="M84.6589 21.2688C85.9036 21.2243 87.1153 21.6718 88.0279 22.513C88.9406 23.3542 89.4796 24.5204 89.5267 25.7556C89.5177 26.2514 89.4234 26.742 89.2479 27.2063C89.4987 27.1887 89.7505 27.1887 90.0014 27.2063C91.2379 27.1596 92.443 27.5992 93.3546 28.4297C94.2662 29.2601 94.8105 30.4141 94.8692 31.6407C94.8221 32.8759 94.2831 34.0421 93.3705 34.8833C92.4578 35.7245 91.2462 36.172 90.0014 36.1275C88.8001 36.1384 87.6345 35.7219 86.716 34.9535C86.2939 35.7436 85.6606 36.4031 84.8856 36.8595C84.1107 37.3159 83.224 37.5517 82.3229 37.5409C81.0782 37.5853 79.8665 37.1379 78.9538 36.2967C78.0412 35.4555 77.5022 34.2893 77.4551 33.0541C77.4717 32.0337 77.8383 31.0494 78.4945 30.2636C79.1507 29.4778 80.0572 28.9375 81.0645 28.7318C80.6653 28.3406 80.348 27.8749 80.1307 27.3616C79.9134 26.8482 79.8006 26.2974 79.7986 25.7406C79.8457 24.5054 80.3847 23.3392 81.2973 22.498C82.21 21.6568 83.4216 21.2093 84.6664 21.2538L84.6589 21.2688Z" fill="white"/>
</g>
<g filter="url(#filter8_dd)">
<path fill-rule="evenodd" clip-rule="evenodd" d="M73.6499 24.761C72.7015 24.2921 71.6058 24.2103 70.5974 24.5332C69.589 24.856 68.748 25.5579 68.2546 26.4884C68.0344 26.8779 67.8864 27.3034 67.8175 27.7447C67.6593 27.6325 67.4633 27.5129 67.3051 27.3932C66.354 26.913 65.2502 26.8251 64.2341 27.1486C63.2179 27.4722 62.3717 28.1809 61.8797 29.1207C61.6326 29.5846 61.4806 30.0925 61.4326 30.6151C61.3845 31.1377 61.4413 31.6645 61.5997 32.1652C61.758 32.6658 62.0148 33.1304 62.3552 33.532C62.6955 33.9336 63.1127 34.2642 63.5826 34.5048C64.4734 34.9568 65.5004 35.0685 66.4687 34.8189C66.44 35.489 66.5816 36.1556 66.8804 36.7572C67.1791 37.3589 67.6256 37.8763 68.1786 38.262C68.7316 38.6476 69.3734 38.8891 70.0451 38.9642C70.7167 39.0393 71.3966 38.9456 72.0222 38.6918C72.6479 38.4379 73.1991 38.032 73.6253 37.5114C74.0515 36.9909 74.339 36.3723 74.4613 35.7126C74.5836 35.0529 74.5368 34.3733 74.3252 33.7363C74.1137 33.0992 73.7441 32.5252 73.2505 32.067C74.1668 31.695 74.9218 31.0145 75.383 30.1451C75.8717 29.2061 75.967 28.1136 75.6481 27.1052C75.3291 26.0969 74.6218 25.2544 73.68 24.761H73.6499Z" fill="white"/>
</g>
<g filter="url(#filter9_dd)">
<path fill-rule="evenodd" clip-rule="evenodd" d="M49.1521 22.368C50.2344 22.7044 51.1398 23.4499 51.6728 24.4434C52.2058 25.4368 52.3235 26.5985 52.0005 27.6774C51.8476 28.1297 51.621 28.5541 51.3298 28.9337C51.558 28.964 51.7827 29.0166 52.0005 29.0907C53.0856 29.4254 53.9937 30.1718 54.5271 31.1675C55.0605 32.1632 55.1761 33.3277 54.8488 34.4076C54.6847 34.9403 54.416 35.4354 54.058 35.8644C53.7001 36.2934 53.26 36.6478 52.7633 36.9072C52.2666 37.1665 51.723 37.3256 51.164 37.3753C50.605 37.4251 50.0415 37.3644 49.5063 37.1969C48.4895 36.8974 47.6267 36.2232 47.095 35.3124C46.5378 35.9049 45.8248 36.3309 45.0365 36.5423C44.2482 36.7537 43.416 36.7422 42.634 36.5089C41.6498 36.2037 40.8101 35.5556 40.2696 34.6842C39.7292 33.8127 39.5246 32.7767 39.6935 31.7672C39.8624 30.7578 40.3935 29.843 41.1887 29.1917C41.984 28.5404 42.9898 28.1964 44.0205 28.2233C43.6669 27.4813 43.5383 26.6533 43.6504 25.8401C43.7625 25.0269 44.1104 24.2635 44.6518 23.643C45.1932 23.0225 45.9048 22.5716 46.6998 22.3453C47.4948 22.1189 48.3389 22.1268 49.1295 22.368H49.1521Z" fill="white"/>
</g>
<g filter="url(#filter10_dd)">
<path fill-rule="evenodd" clip-rule="evenodd" d="M53.9375 9.55821C54.7106 9.13783 55.5733 8.90563 56.4545 8.88071C57.3358 8.85579 58.2104 9.03886 59.0064 9.41486C59.8024 9.79086 60.4971 10.349 61.0333 11.0435C61.5695 11.7379 61.9319 12.5488 62.0907 13.4094C62.3202 13.2276 62.5592 13.0579 62.8066 12.9009C63.5892 12.4681 64.4662 12.2307 65.3618 12.2093C66.2575 12.1878 67.145 12.3829 67.9477 12.7777C68.7505 13.1726 69.4444 13.7552 69.9697 14.4755C70.4949 15.1958 70.8358 16.0321 70.9627 16.9122C71.0897 17.7923 70.999 18.6899 70.6985 19.5275C70.398 20.3652 69.8967 21.1176 69.2379 21.7201C68.579 22.3226 67.7823 22.757 66.9166 22.9858C66.0508 23.2146 65.142 23.231 64.2684 23.0336C64.3664 24.2808 64.031 25.5237 63.318 26.5554C62.605 27.587 61.5574 28.3452 60.3496 28.7036C59.1419 29.062 57.8468 28.9991 56.6802 28.5253C55.5135 28.0515 54.5455 27.1954 53.9375 26.0995C53.3492 25.0543 53.1234 23.8462 53.295 22.6611C53.4665 21.4761 54.0259 20.3799 54.8869 19.5413C53.5879 19.1264 52.5053 18.2213 51.8728 17.0213C51.1497 15.7598 50.961 14.265 51.3482 12.8655C51.7354 11.4661 52.6667 10.2764 53.9375 9.55821Z" fill="white"/>
</g>
<g filter="url(#filter11_dd)">
<path fill-rule="evenodd" clip-rule="evenodd" d="M79.5573 3C80.9325 3.05255 82.2325 3.6364 83.18 4.62694C84.1274 5.61749 84.6473 6.93629 84.6286 8.3019C84.6191 8.90265 84.5253 9.49916 84.3498 10.0742C84.6103 10.0223 84.8752 9.99474 85.141 9.99193C86.5201 10.0311 87.8274 10.611 88.7765 11.6048C89.7256 12.5985 90.2392 13.9251 90.2047 15.2938C90.2473 16.6692 89.7379 18.005 88.7883 19.0076C87.8387 20.0103 86.5268 20.5976 85.141 20.6406C83.8646 20.6221 82.6447 20.1159 81.735 19.2273C81.3558 20.1269 80.7188 20.8964 79.9031 21.4401C79.0873 21.9838 78.1286 22.2778 77.146 22.2858C75.7662 22.2466 74.4581 21.6669 73.5078 20.6734C72.5575 19.6798 72.0423 18.3533 72.0747 16.9839C72.0587 15.8494 72.4114 14.74 73.0805 13.8201C73.7496 12.9001 74.6996 12.2186 75.7896 11.8764C74.9328 10.8811 74.4695 9.61083 74.486 8.3019C74.4516 6.93187 74.9662 5.60424 75.9169 4.61028C76.8676 3.61631 78.1768 3.0372 79.5573 3V3Z" fill="white"/>
</g>
<g filter="url(#filter12_d)">
<path d="M118.381 52.2808H17.8253L18.6327 59.5517H117.574L118.381 52.2808Z" fill="#FBCA12"/>
</g>
<g filter="url(#filter13_i)">
<path fill-rule="evenodd" clip-rule="evenodd" d="M17.7225 52.1828H118.462C119.446 52.1944 120.386 52.5874 121.082 53.2776C121.777 53.9679 122.173 54.9008 122.185 55.8769C122.185 56.8608 121.794 57.8051 121.097 58.505C120.401 59.205 119.454 59.6041 118.462 59.6159H17.7225C16.7311 59.6041 15.7843 59.205 15.0875 58.505C14.3907 57.8051 13.9999 56.8608 14 55.8769C14.0117 54.9008 14.4077 53.9679 15.1033 53.2776C15.7988 52.5874 16.7388 52.1944 17.7225 52.1828Z" fill="#FAB200"/>
</g>
<g filter="url(#filter14_d)">
<path fill-rule="evenodd" clip-rule="evenodd" d="M47.2083 110.519C48.1565 110.52 49.0838 110.243 49.8729 109.721C50.662 109.199 51.2774 108.457 51.6413 107.588C52.0052 106.719 52.1012 105.763 51.9171 104.839C51.7331 103.916 51.2772 103.068 50.6073 102.402C49.9373 101.736 49.0834 101.283 48.1536 101.099C47.2237 100.915 46.2597 101.008 45.3836 101.368C44.5074 101.728 43.7585 102.337 43.2315 103.12C42.7046 103.902 42.4233 104.822 42.4233 105.763C42.4293 107.021 42.9351 108.226 43.8309 109.117C44.7268 110.007 45.9404 110.511 47.2083 110.519Z" fill="#231915"/>
</g>
<g filter="url(#filter15_d)">
<path fill-rule="evenodd" clip-rule="evenodd" d="M86.52 110.519C87.4679 110.519 88.3945 110.24 89.1826 109.717C89.9707 109.195 90.5849 108.452 90.9477 107.583C91.3104 106.714 91.4053 105.757 91.2204 104.835C91.0355 103.912 90.579 103.065 89.9088 102.4C89.2386 101.735 88.3846 101.282 87.455 101.098C86.5253 100.915 85.5617 101.009 84.686 101.369C83.8103 101.729 83.0618 102.338 82.5352 103.12C82.0086 103.903 81.7275 104.822 81.7275 105.763C81.7335 107.022 82.2403 108.229 83.1378 109.119C84.0353 110.01 85.2508 110.513 86.52 110.519Z" fill="#231915"/>
</g>
<path d="M57.4537 127.337C57.418 127.418 57.4048 127.504 57.415 127.589C57.4251 127.675 57.4584 127.757 57.5129 127.833C57.5674 127.909 57.6419 127.976 57.7322 128.03C57.8225 128.084 57.9266 128.125 58.0386 128.149C58.1531 128.177 58.274 128.188 58.3943 128.181C58.5146 128.175 58.632 128.151 58.7397 128.111C58.8474 128.071 58.9434 128.016 59.0221 127.95C59.1007 127.883 59.1606 127.805 59.1983 127.721C59.7218 126.515 60.7178 125.449 62.0622 124.655C63.385 123.942 64.9785 123.55 66.6204 123.532C68.3318 123.528 69.9938 123.953 71.3298 124.736C72.7139 125.553 73.7151 126.666 74.1937 127.92C74.2228 128.005 74.275 128.085 74.3471 128.154C74.4192 128.224 74.5097 128.282 74.6133 128.326C74.7168 128.369 74.8313 128.397 74.9498 128.407C75.0683 128.418 75.1884 128.41 75.303 128.386C75.4222 128.366 75.5348 128.329 75.6342 128.276C75.7335 128.224 75.8176 128.158 75.8815 128.081C75.9454 128.005 75.9878 127.92 76.0062 127.832C76.0246 127.743 76.0187 127.653 75.9887 127.566C75.3765 126.048 74.162 124.698 72.4996 123.688C70.835 122.734 68.784 122.214 66.6708 122.21C64.6384 122.212 62.6637 122.705 61.0538 123.614C59.3865 124.553 58.1485 125.841 57.5041 127.307L57.4537 127.337Z" fill="#231915" stroke="#231915" stroke-width="0.689076"/>
<defs>
<filter id="filter0_dd" x="0.876513" y="33.7593" width="43.899" height="44.7087" filterUnits="userSpaceOnUse" color-interpolation-filters="sRGB">
<feFlood flood-opacity="0" result="BackgroundImageFix"/>
<feColorMatrix in="SourceAlpha" type="matrix" values="0 0 0 0 0 0 0 0 0 0 0 0 0 0 0 0 0 0 127 0"/>
<feOffset dx="-6.89076" dy="11.0252"/>
<feGaussianBlur stdDeviation="5.51261"/>
<feColorMatrix type="matrix" values="0 0 0 0 0.441667 0 0 0 0 0.441667 0 0 0 0 0.441667 0 0 0 0.06 0"/>
<feBlend mode="normal" in2="BackgroundImageFix" result="effect1_dropShadow"/>
<feColorMatrix in="SourceAlpha" type="matrix" values="0 0 0 0 0 0 0 0 0 0 0 0 0 0 0 0 0 0 127 0"/>
<feOffset dx="-1.37815" dy="2.7563"/>
<feGaussianBlur stdDeviation="2.7563"/>
<feColorMatrix type="matrix" values="0 0 0 0 0.395833 0 0 0 0 0.395833 0 0 0 0 0.395833 0 0 0 0.03 0"/>
<feBlend mode="normal" in2="effect1_dropShadow" result="effect2_dropShadow"/>
<feBlend mode="normal" in="SourceGraphic" in2="effect2_dropShadow" result="shape"/>
</filter>
<filter id="filter1_dd" x="21.6651" y="34.635" width="39.1333" height="40.5405" filterUnits="userSpaceOnUse" color-interpolation-filters="sRGB">
<feFlood flood-opacity="0" result="BackgroundImageFix"/>
<feColorMatrix in="SourceAlpha" type="matrix" values="0 0 0 0 0 0 0 0 0 0 0 0 0 0 0 0 0 0 127 0"/>
<feOffset dx="-6.89076" dy="11.0252"/>
<feGaussianBlur stdDeviation="5.51261"/>
<feColorMatrix type="matrix" values="0 0 0 0 0.441667 0 0 0 0 0.441667 0 0 0 0 0.441667 0 0 0 0.06 0"/>
<feBlend mode="normal" in2="BackgroundImageFix" result="effect1_dropShadow"/>
<feColorMatrix in="SourceAlpha" type="matrix" values="0 0 0 0 0 0 0 0 0 0 0 0 0 0 0 0 0 0 127 0"/>
<feOffset dx="-1.37815" dy="2.7563"/>
<feGaussianBlur stdDeviation="2.7563"/>
<feColorMatrix type="matrix" values="0 0 0 0 0.395833 0 0 0 0 0.395833 0 0 0 0 0.395833 0 0 0 0.03 0"/>
<feBlend mode="normal" in2="effect1_dropShadow" result="effect2_dropShadow"/>
<feBlend mode="normal" in="SourceGraphic" in2="effect2_dropShadow" result="shape"/>
</filter>
<filter id="filter2_dd" x="36.8194" y="31.9878" width="40.2072" height="43.0383" filterUnits="userSpaceOnUse" color-interpolation-filters="sRGB">
<feFlood flood-opacity="0" result="BackgroundImageFix"/>
<feColorMatrix in="SourceAlpha" type="matrix" values="0 0 0 0 0 0 0 0 0 0 0 0 0 0 0 0 0 0 127 0"/>
<feOffset dx="-6.89076" dy="11.0252"/>
<feGaussianBlur stdDeviation="5.51261"/>
<feColorMatrix type="matrix" values="0 0 0 0 0.441667 0 0 0 0 0.441667 0 0 0 0 0.441667 0 0 0 0.06 0"/>
<feBlend mode="normal" in2="BackgroundImageFix" result="effect1_dropShadow"/>
<feColorMatrix in="SourceAlpha" type="matrix" values="0 0 0 0 0 0 0 0 0 0 0 0 0 0 0 0 0 0 127 0"/>
<feOffset dx="-1.37815" dy="2.7563"/>
<feGaussianBlur stdDeviation="2.7563"/>
<feColorMatrix type="matrix" values="0 0 0 0 0.395833 0 0 0 0 0.395833 0 0 0 0 0.395833 0 0 0 0.03 0"/>
<feBlend mode="normal" in2="effect1_dropShadow" result="effect2_dropShadow"/>
<feBlend mode="normal" in="SourceGraphic" in2="effect2_dropShadow" result="shape"/>
</filter>
<filter id="filter3_dd" x="54.1802" y="34.106" width="40.1378" height="43.1153" filterUnits="userSpaceOnUse" color-interpolation-filters="sRGB">
<feFlood flood-opacity="0" result="BackgroundImageFix"/>
<feColorMatrix in="SourceAlpha" type="matrix" values="0 0 0 0 0 0 0 0 0 0 0 0 0 0 0 0 0 0 127 0"/>
<feOffset dx="-6.89076" dy="11.0252"/>
<feGaussianBlur stdDeviation="5.51261"/>
<feColorMatrix type="matrix" values="0 0 0 0 0.441667 0 0 0 0 0.441667 0 0 0 0 0.441667 0 0 0 0.06 0"/>
<feBlend mode="normal" in2="BackgroundImageFix" result="effect1_dropShadow"/>
<feColorMatrix in="SourceAlpha" type="matrix" values="0 0 0 0 0 0 0 0 0 0 0 0 0 0 0 0 0 0 127 0"/>
<feOffset dx="-1.37815" dy="2.7563"/>
<feGaussianBlur stdDeviation="2.7563"/>
<feColorMatrix type="matrix" values="0 0 0 0 0.395833 0 0 0 0 0.395833 0 0 0 0 0.395833 0 0 0 0.03 0"/>
<feBlend mode="normal" in2="effect1_dropShadow" result="effect2_dropShadow"/>
<feBlend mode="normal" in="SourceGraphic" in2="effect2_dropShadow" result="shape"/>
</filter>
<filter id="filter4_dd" x="69.6568" y="37.2274" width="36.4472" height="40.0166" filterUnits="userSpaceOnUse" color-interpolation-filters="sRGB">
<feFlood flood-opacity="0" result="BackgroundImageFix"/>
<feColorMatrix in="SourceAlpha" type="matrix" values="0 0 0 0 0 0 0 0 0 0 0 0 0 0 0 0 0 0 127 0"/>
<feOffset dx="-6.89076" dy="11.0252"/>
<feGaussianBlur stdDeviation="5.51261"/>
<feColorMatrix type="matrix" values="0 0 0 0 0.441667 0 0 0 0 0.441667 0 0 0 0 0.441667 0 0 0 0.06 0"/>
<feBlend mode="normal" in2="BackgroundImageFix" result="effect1_dropShadow"/>
<feColorMatrix in="SourceAlpha" type="matrix" values="0 0 0 0 0 0 0 0 0 0 0 0 0 0 0 0 0 0 127 0"/>
<feOffset dx="-1.37815" dy="2.7563"/>
<feGaussianBlur stdDeviation="2.7563"/>
<feColorMatrix type="matrix" values="0 0 0 0 0.395833 0 0 0 0 0.395833 0 0 0 0 0.395833 0 0 0 0.03 0"/>
<feBlend mode="normal" in2="effect1_dropShadow" result="effect2_dropShadow"/>
<feBlend mode="normal" in="SourceGraphic" in2="effect2_dropShadow" result="shape"/>
</filter>
<filter id="filter5_dd" x="81.8663" y="32.773" width="39.9473" height="43.0118" filterUnits="userSpaceOnUse" color-interpolation-filters="sRGB">
<feFlood flood-opacity="0" result="BackgroundImageFix"/>
<feColorMatrix in="SourceAlpha" type="matrix" values="0 0 0 0 0 0 0 0 0 0 0 0 0 0 0 0 0 0 127 0"/>
<feOffset dx="-6.89076" dy="11.0252"/>
<feGaussianBlur stdDeviation="5.51261"/>
<feColorMatrix type="matrix" values="0 0 0 0 0.441667 0 0 0 0 0.441667 0 0 0 0 0.441667 0 0 0 0.06 0"/>
<feBlend mode="normal" in2="BackgroundImageFix" result="effect1_dropShadow"/>
<feColorMatrix in="SourceAlpha" type="matrix" values="0 0 0 0 0 0 0 0 0 0 0 0 0 0 0 0 0 0 127 0"/>
<feOffset dx="-1.37815" dy="2.7563"/>
<feGaussianBlur stdDeviation="2.7563"/>
<feColorMatrix type="matrix" values="0 0 0 0 0.395833 0 0 0 0 0.395833 0 0 0 0 0.395833 0 0 0 0.03 0"/>
<feBlend mode="normal" in2="effect1_dropShadow" result="effect2_dropShadow"/>
<feBlend mode="normal" in="SourceGraphic" in2="effect2_dropShadow" result="shape"/>
</filter>
<filter id="filter6_dd" x="72.4258" y="20.32" width="40.261" height="42.9165" filterUnits="userSpaceOnUse" color-interpolation-filters="sRGB">
<feFlood flood-opacity="0" result="BackgroundImageFix"/>
<feColorMatrix in="SourceAlpha" type="matrix" values="0 0 0 0 0 0 0 0 0 0 0 0 0 0 0 0 0 0 127 0"/>
<feOffset dx="-6.89076" dy="11.0252"/>
<feGaussianBlur stdDeviation="5.51261"/>
<feColorMatrix type="matrix" values="0 0 0 0 0.441667 0 0 0 0 0.441667 0 0 0 0 0.441667 0 0 0 0.06 0"/>
<feBlend mode="normal" in2="BackgroundImageFix" result="effect1_dropShadow"/>
<feColorMatrix in="SourceAlpha" type="matrix" values="0 0 0 0 0 0 0 0 0 0 0 0 0 0 0 0 0 0 127 0"/>
<feOffset dx="-1.37815" dy="2.7563"/>
<feGaussianBlur stdDeviation="2.7563"/>
<feColorMatrix type="matrix" values="0 0 0 0 0.395833 0 0 0 0 0.395833 0 0 0 0 0.395833 0 0 0 0.03 0"/>
<feBlend mode="normal" in2="effect1_dropShadow" result="effect2_dropShadow"/>
<feBlend mode="normal" in="SourceGraphic" in2="effect2_dropShadow" result="shape"/>
</filter>
<filter id="filter7_dd" x="59.5391" y="18.4945" width="39.4646" height="41.0999" filterUnits="userSpaceOnUse" color-interpolation-filters="sRGB">
<feFlood flood-opacity="0" result="BackgroundImageFix"/>
<feColorMatrix in="SourceAlpha" type="matrix" values="0 0 0 0 0 0 0 0 0 0 0 0 0 0 0 0 0 0 127 0"/>
<feOffset dx="-6.89076" dy="11.0252"/>
<feGaussianBlur stdDeviation="5.51261"/>
<feColorMatrix type="matrix" values="0 0 0 0 0.441667 0 0 0 0 0.441667 0 0 0 0 0.441667 0 0 0 0.06 0"/>
<feBlend mode="normal" in2="BackgroundImageFix" result="effect1_dropShadow"/>
<feColorMatrix in="SourceAlpha" type="matrix" values="0 0 0 0 0 0 0 0 0 0 0 0 0 0 0 0 0 0 127 0"/>
<feOffset dx="-1.37815" dy="2.7563"/>
<feGaussianBlur stdDeviation="2.7563"/>
<feColorMatrix type="matrix" values="0 0 0 0 0.395833 0 0 0 0 0.395833 0 0 0 0 0.395833 0 0 0 0.03 0"/>
<feBlend mode="normal" in2="effect1_dropShadow" result="effect2_dropShadow"/>
<feBlend mode="normal" in="SourceGraphic" in2="effect2_dropShadow" result="shape"/>
</filter>
<filter id="filter8_dd" x="43.5" y="21.5825" width="36.4679" height="39.4573" filterUnits="userSpaceOnUse" color-interpolation-filters="sRGB">
<feFlood flood-opacity="0" result="BackgroundImageFix"/>
<feColorMatrix in="SourceAlpha" type="matrix" values="0 0 0 0 0 0 0 0 0 0 0 0 0 0 0 0 0 0 127 0"/>
<feOffset dx="-6.89076" dy="11.0252"/>
<feGaussianBlur stdDeviation="5.51261"/>
<feColorMatrix type="matrix" values="0 0 0 0 0.441667 0 0 0 0 0.441667 0 0 0 0 0.441667 0 0 0 0.06 0"/>
<feBlend mode="normal" in2="BackgroundImageFix" result="effect1_dropShadow"/>
<feColorMatrix in="SourceAlpha" type="matrix" values="0 0 0 0 0 0 0 0 0 0 0 0 0 0 0 0 0 0 127 0"/>
<feOffset dx="-1.37815" dy="2.7563"/>
<feGaussianBlur stdDeviation="2.7563"/>
<feColorMatrix type="matrix" values="0 0 0 0 0.395833 0 0 0 0 0.395833 0 0 0 0 0.395833 0 0 0 0.03 0"/>
<feBlend mode="normal" in2="effect1_dropShadow" result="effect2_dropShadow"/>
<feBlend mode="normal" in="SourceGraphic" in2="effect2_dropShadow" result="shape"/>
</filter>
<filter id="filter9_dd" x="21.7198" y="19.4248" width="37.4462" height="40.0178" filterUnits="userSpaceOnUse" color-interpolation-filters="sRGB">
<feFlood flood-opacity="0" result="BackgroundImageFix"/>
<feColorMatrix in="SourceAlpha" type="matrix" values="0 0 0 0 0 0 0 0 0 0 0 0 0 0 0 0 0 0 127 0"/>
<feOffset dx="-6.89076" dy="11.0252"/>
<feGaussianBlur stdDeviation="5.51261"/>
<feColorMatrix type="matrix" values="0 0 0 0 0.441667 0 0 0 0 0.441667 0 0 0 0 0.441667 0 0 0 0.06 0"/>
<feBlend mode="normal" in2="BackgroundImageFix" result="effect1_dropShadow"/>
<feColorMatrix in="SourceAlpha" type="matrix" values="0 0 0 0 0 0 0 0 0 0 0 0 0 0 0 0 0 0 127 0"/>
<feOffset dx="-1.37815" dy="2.7563"/>
<feGaussianBlur stdDeviation="2.7563"/>
<feColorMatrix type="matrix" values="0 0 0 0 0.395833 0 0 0 0 0.395833 0 0 0 0 0.395833 0 0 0 0.03 0"/>
<feBlend mode="normal" in2="effect1_dropShadow" result="effect2_dropShadow"/>
<feBlend mode="normal" in="SourceGraphic" in2="effect2_dropShadow" result="shape"/>
</filter>
<filter id="filter10_dd" x="33.2354" y="6.12216" width="41.9175" height="44.8614" filterUnits="userSpaceOnUse" color-interpolation-filters="sRGB">
<feFlood flood-opacity="0" result="BackgroundImageFix"/>
<feColorMatrix in="SourceAlpha" type="matrix" values="0 0 0 0 0 0 0 0 0 0 0 0 0 0 0 0 0 0 127 0"/>
<feOffset dx="-6.89076" dy="11.0252"/>
<feGaussianBlur stdDeviation="5.51261"/>
<feColorMatrix type="matrix" values="0 0 0 0 0.441667 0 0 0 0 0.441667 0 0 0 0 0.441667 0 0 0 0.06 0"/>
<feBlend mode="normal" in2="BackgroundImageFix" result="effect1_dropShadow"/>
<feColorMatrix in="SourceAlpha" type="matrix" values="0 0 0 0 0 0 0 0 0 0 0 0 0 0 0 0 0 0 127 0"/>
<feOffset dx="-1.37815" dy="2.7563"/>
<feGaussianBlur stdDeviation="2.7563"/>
<feColorMatrix type="matrix" values="0 0 0 0 0.395833 0 0 0 0 0.395833 0 0 0 0 0.395833 0 0 0 0.03 0"/>
<feBlend mode="normal" in2="effect1_dropShadow" result="effect2_dropShadow"/>
<feBlend mode="normal" in="SourceGraphic" in2="effect2_dropShadow" result="shape"/>
</filter>
<filter id="filter11_dd" x="54.1573" y="0.243697" width="40.1844" height="44.0925" filterUnits="userSpaceOnUse" color-interpolation-filters="sRGB">
<feFlood flood-opacity="0" result="BackgroundImageFix"/>
<feColorMatrix in="SourceAlpha" type="matrix" values="0 0 0 0 0 0 0 0 0 0 0 0 0 0 0 0 0 0 127 0"/>
<feOffset dx="-6.89076" dy="11.0252"/>
<feGaussianBlur stdDeviation="5.51261"/>
<feColorMatrix type="matrix" values="0 0 0 0 0.441667 0 0 0 0 0.441667 0 0 0 0 0.441667 0 0 0 0.06 0"/>
<feBlend mode="normal" in2="BackgroundImageFix" result="effect1_dropShadow"/>
<feColorMatrix in="SourceAlpha" type="matrix" values="0 0 0 0 0 0 0 0 0 0 0 0 0 0 0 0 0 0 127 0"/>
<feOffset dx="-1.37815" dy="2.7563"/>
<feGaussianBlur stdDeviation="2.7563"/>
<feColorMatrix type="matrix" values="0 0 0 0 0.395833 0 0 0 0 0.395833 0 0 0 0 0.395833 0 0 0 0.03 0"/>
<feBlend mode="normal" in2="effect1_dropShadow" result="effect2_dropShadow"/>
<feBlend mode="normal" in="SourceGraphic" in2="effect2_dropShadow" result="shape"/>
</filter>
<filter id="filter12_d" x="17.8252" y="52.2808" width="100.556" height="9.33816" filterUnits="userSpaceOnUse" color-interpolation-filters="sRGB">
<feFlood flood-opacity="0" result="BackgroundImageFix"/>
<feColorMatrix in="SourceAlpha" type="matrix" values="0 0 0 0 0 0 0 0 0 0 0 0 0 0 0 0 0 0 127 0"/>
<feOffset dy="2.06723"/>
<feColorMatrix type="matrix" values="0 0 0 0 0 0 0 0 0 0 0 0 0 0 0 0 0 0 0.05 0"/>
<feBlend mode="normal" in2="BackgroundImageFix" result="effect1_dropShadow"/>
<feBlend mode="normal" in="SourceGraphic" in2="effect1_dropShadow" result="shape"/>
</filter>
<filter id="filter13_i" x="14" y="52.1828" width="108.185" height="10.1894" filterUnits="userSpaceOnUse" color-interpolation-filters="sRGB">
<feFlood flood-opacity="0" result="BackgroundImageFix"/>
<feBlend mode="normal" in="SourceGraphic" in2="BackgroundImageFix" result="shape"/>
<feColorMatrix in="SourceAlpha" type="matrix" values="0 0 0 0 0 0 0 0 0 0 0 0 0 0 0 0 0 0 127 0" result="hardAlpha"/>
<feOffset dy="2.7563"/>
<feGaussianBlur stdDeviation="1.37815"/>
<feComposite in2="hardAlpha" operator="arithmetic" k2="-1" k3="1"/>
<feColorMatrix type="matrix" values="0 0 0 0 1 0 0 0 0 1 0 0 0 0 1 0 0 0 0.15 0"/>
<feBlend mode="normal" in2="shape" result="effect1_innerShadow"/>
</filter>
<filter id="filter14_d" x="42.4233" y="100.318" width="10.274" height="10.2011" filterUnits="userSpaceOnUse" color-interpolation-filters="sRGB">
<feFlood flood-opacity="0" result="BackgroundImageFix"/>
<feColorMatrix in="SourceAlpha" type="matrix" values="0 0 0 0 0 0 0 0 0 0 0 0 0 0 0 0 0 0 127 0"/>
<feOffset dx="0.689076" dy="-0.689076"/>
<feColorMatrix type="matrix" values="0 0 0 0 1 0 0 0 0 1 0 0 0 0 1 0 0 0 0.2 0"/>
<feBlend mode="normal" in2="BackgroundImageFix" result="effect1_dropShadow"/>
<feBlend mode="normal" in="SourceGraphic" in2="effect1_dropShadow" result="shape"/>
</filter>
<filter id="filter15_d" x="81.7275" y="100.318" width="10.274" height="10.2011" filterUnits="userSpaceOnUse" color-interpolation-filters="sRGB">
<feFlood flood-opacity="0" result="BackgroundImageFix"/>
<feColorMatrix in="SourceAlpha" type="matrix" values="0 0 0 0 0 0 0 0 0 0 0 0 0 0 0 0 0 0 127 0"/>
<feOffset dx="0.689076" dy="-0.689076"/>
<feColorMatrix type="matrix" values="0 0 0 0 1 0 0 0 0 1 0 0 0 0 1 0 0 0 0.2 0"/>
<feBlend mode="normal" in2="BackgroundImageFix" result="effect1_dropShadow"/>
<feBlend mode="normal" in="SourceGraphic" in2="effect1_dropShadow" result="shape"/>
</filter>
</defs>
</svg>
