<svg width="11" height="15" viewBox="0 0 11 15" fill="none" xmlns="http://www.w3.org/2000/svg">
<path fill-rule="evenodd" clip-rule="evenodd" d="M7.0224 3.29175C7.0224 1.82875 6.5835 0 6.5835 0C9.29005 2.12135 10.9725 5.4131 10.9725 9.14375C10.9725 12.1429 8.4854 14.63 5.48625 14.63C2.4871 14.63 0 12.1429 0 9.14375C0 6.8761 0.80465 4.75475 2.1945 3.0723V3.29175C2.1945 4.6816 3.29172 5.852 4.6816 5.852C6.07148 5.852 7.0224 4.6816 7.0224 3.29175ZM3.29169 10.3142C3.29169 11.4846 4.24264 12.4356 5.48619 12.4356C7.31494 12.4356 8.77794 10.9726 8.77794 9.21696C8.77794 8.26601 8.63164 7.31506 8.33904 6.43726C7.68069 7.38821 6.43717 7.97343 5.19359 8.19286C4.02319 8.41231 3.29169 9.21696 3.29169 10.3142Z" fill="#FBCA12"/>
</svg>
